<svg width="1024" height="279" viewBox="0 0 1024 279" fill="none" xmlns="http://www.w3.org/2000/svg">
<path d="M195.341 14.1154L202.707 34.0232L203.489 36.1357L205.601 36.9174L225.509 44.284L205.601 51.6505L203.489 52.4322L202.707 54.5447L195.341 74.4525L187.974 54.5447L187.192 52.4322L185.08 51.6505L165.172 44.284L185.08 36.9174L187.192 36.1357L187.974 34.0232L195.341 14.1154Z" stroke="#FCFCFC" stroke-width="9.7971" stroke-linecap="round"/>
<path d="M364.643 85.0692C339.545 61.3164 291.591 45.6306 257.083 71.1761C224.367 98.9623 211.851 139.03 234.003 177.4" stroke="#FCFCFC" stroke-width="9.7971" stroke-linecap="round"/>
<path d="M330.394 154.775C313.02 154.775 298.936 140.276 298.936 122.391" stroke="#FCFCFC" stroke-width="9.7971" stroke-linecap="round"/>
<path d="M364.629 84.8416L381.283 65.9512V130.718" stroke="#FCFCFC" stroke-width="9.7971" stroke-linecap="round"/>
<path d="M330.394 154.827V177.231L359.856 199.187L381.283 183.504V127.943" stroke="#FCFCFC" stroke-width="9.7971" stroke-linecap="round"/>
<path d="M351.173 115.378L358.013 122.217" stroke="#FCFCFC" stroke-width="9.7971" stroke-linecap="round"/>
<path d="M4.99994 24.4927L235.232 254.725" stroke="#FCFCFC" stroke-width="9.7971" stroke-linecap="round"/>
<path d="M98.0725 44.0869L254.826 200.841" stroke="#FCFCFC" stroke-width="9.7971" stroke-linecap="round"/>
<path d="M49.087 137.159L151.957 240.029" stroke="#FCFCFC" stroke-width="9.7971" stroke-linecap="round"/>
<path d="M555.671 71.9499C555.671 76.4502 554.61 80.6958 552.487 84.6866C550.364 88.6774 546.968 91.9465 542.298 94.4939C537.627 96.9563 531.641 98.1875 524.339 98.1875H508.291V134.105H493.771V45.5849H524.339C531.132 45.5849 536.863 46.7737 541.533 49.1512C546.288 51.4438 549.812 54.5855 552.105 58.5764C554.482 62.5672 555.671 67.025 555.671 71.9499ZM524.339 86.3424C529.858 86.3424 533.976 85.1112 536.693 82.6487C539.411 80.1014 540.769 76.5351 540.769 71.9499C540.769 62.27 535.292 57.4301 524.339 57.4301H508.291V86.3424H524.339ZM631.344 97.2959C631.344 99.9282 631.175 102.306 630.835 104.428H577.213C577.638 110.033 579.718 114.533 583.454 117.929C587.191 121.326 591.776 123.024 597.21 123.024C605.022 123.024 610.541 119.755 613.768 113.217H629.434C627.311 119.67 623.448 124.977 617.843 129.138C612.324 133.213 605.446 135.251 597.21 135.251C590.502 135.251 584.473 133.765 579.124 130.793C573.859 127.737 569.699 123.491 566.642 118.057C563.67 112.538 562.184 106.169 562.184 98.9517C562.184 91.7342 563.628 85.4083 566.515 79.974C569.486 74.4548 573.605 70.2092 578.869 67.2373C584.219 64.2654 590.332 62.7795 597.21 62.7795C603.833 62.7795 609.734 64.223 614.914 67.11C620.094 69.9969 624.127 74.0727 627.014 79.3372C629.901 84.5168 631.344 90.503 631.344 97.2959ZM616.188 92.7107C616.103 87.3613 614.192 83.0733 610.456 79.8467C606.72 76.62 602.092 75.0067 596.573 75.0067C591.563 75.0067 587.275 76.62 583.709 79.8467C580.143 82.9884 578.02 87.2764 577.341 92.7107H616.188ZM671.414 62.7795C676.848 62.7795 681.645 63.8833 685.806 66.091C690.052 68.2138 693.363 70.8885 695.741 74.1151V63.9258H710.388V135.251C710.388 141.705 709.029 147.436 706.312 152.446C703.595 157.541 699.647 161.531 694.467 164.418C689.372 167.305 683.259 168.749 676.126 168.749C666.616 168.749 658.719 166.499 652.436 161.998C646.153 157.583 642.586 151.554 641.737 143.912H656.13C657.233 147.563 659.569 150.493 663.135 152.701C666.786 154.993 671.116 156.139 676.126 156.139C681.985 156.139 686.698 154.356 690.264 150.79C693.915 147.224 695.741 142.044 695.741 135.251V123.534C693.278 126.845 689.924 129.647 685.679 131.94C681.518 134.147 676.763 135.251 671.414 135.251C665.3 135.251 659.696 133.723 654.601 130.666C649.591 127.524 645.601 123.194 642.629 117.675C639.742 112.07 638.298 105.745 638.298 98.697C638.298 91.6493 639.742 85.4083 642.629 79.974C645.601 74.5397 649.591 70.3366 654.601 67.3647C659.696 64.3079 665.3 62.7795 671.414 62.7795ZM695.741 98.9517C695.741 94.1118 694.722 89.9086 692.684 86.3424C690.731 82.7761 688.141 80.0589 684.915 78.1909C681.688 76.3228 678.207 75.3888 674.47 75.3888C670.734 75.3888 667.253 76.3228 664.026 78.1909C660.8 79.974 658.168 82.6487 656.13 86.215C654.177 89.6964 653.2 93.857 653.2 98.697C653.2 103.537 654.177 107.782 656.13 111.434C658.168 115.085 660.8 117.887 664.026 119.84C667.338 121.708 670.819 122.642 674.47 122.642C678.207 122.642 681.688 121.708 684.915 119.84C688.141 117.972 690.731 115.255 692.684 111.688C694.722 108.037 695.741 103.792 695.741 98.9517ZM722.124 98.697C722.124 91.6493 723.568 85.4083 726.455 79.974C729.426 74.5397 733.417 70.3366 738.427 67.3647C743.522 64.3079 749.126 62.7795 755.24 62.7795C760.759 62.7795 765.556 63.8833 769.632 66.091C773.793 68.2138 777.104 70.8885 779.567 74.1151V63.9258H794.214V134.105H779.567V123.661C777.104 126.972 773.75 129.732 769.505 131.94C765.259 134.147 760.419 135.251 754.985 135.251C748.956 135.251 743.437 133.723 738.427 130.666C733.417 127.524 729.426 123.194 726.455 117.675C723.568 112.07 722.124 105.745 722.124 98.697ZM779.567 98.9517C779.567 94.1118 778.548 89.9086 776.51 86.3424C774.557 82.7761 771.967 80.0589 768.74 78.1909C765.514 76.3228 762.032 75.3888 758.296 75.3888C754.56 75.3888 751.079 76.3228 747.852 78.1909C744.626 79.974 741.993 82.6487 739.955 86.215C738.003 89.6964 737.026 93.857 737.026 98.697C737.026 103.537 738.003 107.782 739.955 111.434C741.993 115.085 744.626 117.887 747.852 119.84C751.164 121.708 754.645 122.642 758.296 122.642C762.032 122.642 765.514 121.708 768.74 119.84C771.967 117.972 774.557 115.255 776.51 111.688C778.548 108.037 779.567 103.792 779.567 98.9517ZM836.263 135.251C830.744 135.251 825.777 134.275 821.361 132.322C817.031 130.284 813.592 127.567 811.045 124.17C808.497 120.689 807.139 116.826 806.969 112.58H821.998C822.253 115.552 823.654 118.057 826.201 120.095C828.834 122.048 832.103 123.024 836.009 123.024C840.084 123.024 843.226 122.26 845.434 120.731C847.726 119.118 848.873 117.08 848.873 114.618C848.873 111.986 847.599 110.033 845.052 108.759C842.589 107.485 838.641 106.084 833.206 104.556C827.942 103.112 823.654 101.711 820.342 100.353C817.031 98.9942 814.144 96.9138 811.681 94.1118C809.304 91.3097 808.115 87.616 808.115 83.0308C808.115 79.2947 809.219 75.8983 811.427 72.8415C813.634 69.6998 816.776 67.2373 820.852 65.4542C825.013 63.6711 829.768 62.7795 835.117 62.7795C843.099 62.7795 849.509 64.8174 854.349 68.8931C859.274 72.8839 861.906 78.3607 862.246 85.3234H847.726C847.472 82.1817 846.198 79.6768 843.905 77.8088C841.613 75.9407 838.513 75.0067 834.608 75.0067C830.787 75.0067 827.857 75.7285 825.819 77.1719C823.781 78.6154 822.762 80.5259 822.762 82.9035C822.762 84.7715 823.442 86.3424 824.8 87.616C826.159 88.8897 827.815 89.9086 829.768 90.6728C831.721 91.3521 834.608 92.2437 838.429 93.3476C843.523 94.7061 847.684 96.1072 850.91 97.5507C854.222 98.9092 857.067 100.947 859.444 103.664C861.822 106.381 863.053 109.99 863.138 114.49C863.138 118.481 862.034 122.048 859.826 125.189C857.618 128.331 854.477 130.793 850.401 132.577C846.41 134.36 841.698 135.251 836.263 135.251ZM939.888 63.9258V134.105H925.368V125.826C923.075 128.713 920.061 131.006 916.325 132.704C912.674 134.317 908.768 135.124 904.607 135.124C899.088 135.124 894.12 133.978 889.705 131.685C885.375 129.392 881.936 125.996 879.388 121.496C876.926 116.995 875.695 111.561 875.695 105.193V63.9258H890.087V103.027C890.087 109.311 891.658 114.151 894.8 117.547C897.942 120.859 902.23 122.515 907.664 122.515C913.098 122.515 917.386 120.859 920.528 117.547C923.755 114.151 925.368 109.311 925.368 103.027V63.9258H939.888ZM982.024 135.251C976.504 135.251 971.537 134.275 967.122 132.322C962.791 130.284 959.352 127.567 956.805 124.17C954.258 120.689 952.899 116.826 952.729 112.58H967.759C968.013 115.552 969.414 118.057 971.962 120.095C974.594 122.048 977.863 123.024 981.769 123.024C985.845 123.024 988.986 122.26 991.194 120.731C993.487 119.118 994.633 117.08 994.633 114.618C994.633 111.986 993.359 110.033 990.812 108.759C988.35 107.485 984.401 106.084 978.967 104.556C973.702 103.112 969.414 101.711 966.103 100.353C962.791 98.9942 959.904 96.9138 957.442 94.1118C955.064 91.3097 953.876 87.616 953.876 83.0308C953.876 79.2947 954.979 75.8983 957.187 72.8415C959.395 69.6998 962.537 67.2373 966.612 65.4542C970.773 63.6711 975.528 62.7795 980.877 62.7795C988.859 62.7795 995.27 64.8174 1000.11 68.8931C1005.03 72.8839 1007.67 78.3607 1008.01 85.3234H993.487C993.232 82.1817 991.958 79.6768 989.666 77.8088C987.373 75.9407 984.274 75.0067 980.368 75.0067C976.547 75.0067 973.617 75.7285 971.58 77.1719C969.542 78.6154 968.523 80.5259 968.523 82.9035C968.523 84.7715 969.202 86.3424 970.561 87.616C971.919 88.8897 973.575 89.9086 975.528 90.6728C977.481 91.3521 980.368 92.2437 984.189 93.3476C989.284 94.7061 993.444 96.1072 996.671 97.5507C999.982 98.9092 1002.83 100.947 1005.2 103.664C1007.58 106.381 1008.81 109.99 1008.9 114.49C1008.9 118.481 1007.79 122.048 1005.59 125.189C1003.38 128.331 1000.24 130.793 996.161 132.577C992.171 134.36 987.458 135.251 982.024 135.251Z" fill="#FCFCFC"/>
<path d="M504.501 183.607C509.745 183.607 514.275 184.596 518.092 186.574C521.956 188.505 524.9 191.288 526.923 194.921C528.993 198.555 530.028 202.832 530.028 207.754C530.028 212.675 528.993 216.952 526.923 220.586C524.9 224.173 521.956 226.933 518.092 228.865C514.275 230.75 509.745 231.693 504.501 231.693H489.53V183.607H504.501ZM504.501 226.519C510.711 226.519 515.448 224.886 518.713 221.621C521.979 218.309 523.612 213.687 523.612 207.754C523.612 201.775 521.956 197.106 518.644 193.749C515.379 190.391 510.665 188.712 504.501 188.712H495.809V226.519H504.501ZM573.636 211.341C573.636 212.537 573.567 213.802 573.429 215.136H543.211C543.441 218.861 544.706 221.782 547.005 223.897C549.351 225.967 552.18 227.002 555.491 227.002C558.205 227.002 560.459 226.381 562.252 225.139C564.092 223.851 565.38 222.15 566.116 220.034H572.877C571.865 223.667 569.841 226.634 566.806 228.934C563.77 231.187 559.999 232.314 555.491 232.314C551.904 232.314 548.684 231.509 545.833 229.9C543.027 228.29 540.819 226.013 539.21 223.07C537.6 220.08 536.795 216.63 536.795 212.721C536.795 208.812 537.577 205.385 539.141 202.441C540.704 199.498 542.889 197.244 545.695 195.68C548.546 194.071 551.812 193.266 555.491 193.266C559.079 193.266 562.252 194.048 565.012 195.611C567.772 197.175 569.887 199.337 571.359 202.096C572.877 204.81 573.636 207.892 573.636 211.341ZM567.151 210.03C567.151 207.639 566.622 205.592 565.564 203.89C564.506 202.142 563.057 200.832 561.217 199.958C559.424 199.038 557.423 198.578 555.215 198.578C552.042 198.578 549.328 199.59 547.074 201.614C544.867 203.637 543.602 206.443 543.28 210.03H567.151ZM596.139 232.314C593.241 232.314 590.642 231.831 588.343 230.865C586.043 229.854 584.226 228.474 582.892 226.726C581.559 224.932 580.823 222.886 580.685 220.586H587.17C587.354 222.472 588.228 224.012 589.791 225.208C591.401 226.404 593.494 227.002 596.07 227.002C598.461 227.002 600.347 226.473 601.727 225.415C603.107 224.357 603.797 223.024 603.797 221.414C603.797 219.758 603.061 218.539 601.589 217.757C600.117 216.929 597.84 216.125 594.759 215.343C591.953 214.607 589.653 213.871 587.86 213.135C586.112 212.353 584.594 211.226 583.306 209.754C582.065 208.237 581.444 206.259 581.444 203.821C581.444 201.889 582.019 200.119 583.168 198.509C584.318 196.899 585.951 195.634 588.067 194.714C590.182 193.749 592.597 193.266 595.311 193.266C599.496 193.266 602.877 194.324 605.452 196.439C608.028 198.555 609.408 201.453 609.592 205.132H603.314C603.176 203.154 602.371 201.568 600.899 200.372C599.473 199.176 597.541 198.578 595.104 198.578C592.85 198.578 591.056 199.061 589.722 200.027C588.389 200.993 587.722 202.257 587.722 203.821C587.722 205.063 588.113 206.098 588.895 206.926C589.722 207.708 590.734 208.352 591.93 208.858C593.172 209.317 594.874 209.846 597.035 210.444C599.749 211.18 601.957 211.916 603.659 212.652C605.36 213.342 606.809 214.4 608.005 215.826C609.247 217.251 609.891 219.114 609.937 221.414C609.937 223.483 609.362 225.346 608.212 227.002C607.062 228.658 605.429 229.969 603.314 230.934C601.244 231.854 598.852 232.314 596.139 232.314ZM622.873 187.746C621.678 187.746 620.666 187.333 619.838 186.505C619.01 185.677 618.596 184.665 618.596 183.469C618.596 182.273 619.01 181.261 619.838 180.433C620.666 179.606 621.678 179.192 622.873 179.192C624.023 179.192 624.989 179.606 625.771 180.433C626.599 181.261 627.013 182.273 627.013 183.469C627.013 184.665 626.599 185.677 625.771 186.505C624.989 187.333 624.023 187.746 622.873 187.746ZM625.909 193.887V231.693H619.631V193.887H625.909ZM653.033 193.266C656.298 193.266 659.15 193.979 661.587 195.404C664.071 196.83 665.911 198.624 667.107 200.786V193.887H673.454V232.521C673.454 235.971 672.718 239.029 671.246 241.697C669.774 244.411 667.659 246.526 664.899 248.044C662.185 249.562 659.012 250.321 655.378 250.321C650.411 250.321 646.272 249.148 642.96 246.802C639.648 244.457 637.694 241.26 637.096 237.213H643.305C643.995 239.512 645.421 241.352 647.582 242.732C649.744 244.158 652.343 244.871 655.378 244.871C658.828 244.871 661.633 243.79 663.795 241.628C666.003 239.466 667.107 236.431 667.107 232.521V224.587C665.865 226.795 664.025 228.635 661.587 230.107C659.15 231.578 656.298 232.314 653.033 232.314C649.675 232.314 646.617 231.486 643.857 229.831C641.143 228.175 639.005 225.852 637.441 222.863C635.877 219.873 635.095 216.469 635.095 212.652C635.095 208.789 635.877 205.408 637.441 202.51C639.005 199.567 641.143 197.29 643.857 195.68C646.617 194.071 649.675 193.266 653.033 193.266ZM667.107 212.721C667.107 209.869 666.532 207.386 665.382 205.27C664.232 203.154 662.668 201.545 660.691 200.441C658.759 199.291 656.62 198.716 654.274 198.716C651.929 198.716 649.79 199.268 647.858 200.372C645.927 201.476 644.386 203.085 643.236 205.201C642.086 207.317 641.511 209.8 641.511 212.652C641.511 215.55 642.086 218.079 643.236 220.241C644.386 222.357 645.927 223.989 647.858 225.139C649.79 226.243 651.929 226.795 654.274 226.795C656.62 226.795 658.759 226.243 660.691 225.139C662.668 223.989 664.232 222.357 665.382 220.241C666.532 218.079 667.107 215.573 667.107 212.721ZM703.315 193.197C707.915 193.197 711.64 194.599 714.492 197.405C717.343 200.165 718.769 204.166 718.769 209.409V231.693H712.56V210.306C712.56 206.535 711.617 203.66 709.731 201.683C707.846 199.659 705.27 198.647 702.005 198.647C698.693 198.647 696.048 199.682 694.071 201.752C692.139 203.821 691.173 206.834 691.173 210.789V231.693H684.895V193.887H691.173V199.268C692.415 197.336 694.094 195.841 696.209 194.783C698.371 193.726 700.74 193.197 703.315 193.197ZM764.328 232.176C761.154 232.176 758.303 231.624 755.773 230.521C753.289 229.371 751.335 227.807 749.909 225.829C748.483 223.805 747.747 221.483 747.701 218.861H754.393C754.623 221.115 755.543 223.024 757.153 224.587C758.809 226.105 761.2 226.864 764.328 226.864C767.317 226.864 769.663 226.128 771.365 224.656C773.113 223.139 773.986 221.207 773.986 218.861C773.986 217.021 773.481 215.527 772.469 214.377C771.457 213.227 770.192 212.353 768.674 211.755C767.156 211.157 765.11 210.513 762.534 209.823C759.361 208.996 756.808 208.168 754.876 207.34C752.99 206.512 751.358 205.224 749.978 203.476C748.644 201.683 747.977 199.291 747.977 196.301C747.977 193.68 748.644 191.357 749.978 189.333C751.312 187.31 753.174 185.746 755.566 184.642C758.004 183.538 760.786 182.986 763.914 182.986C768.421 182.986 772.101 184.113 774.952 186.367C777.85 188.62 779.483 191.61 779.851 195.335H772.952C772.722 193.496 771.756 191.886 770.054 190.506C768.352 189.08 766.099 188.367 763.293 188.367C760.671 188.367 758.533 189.057 756.877 190.437C755.221 191.771 754.393 193.657 754.393 196.094C754.393 197.842 754.876 199.268 755.842 200.372C756.854 201.476 758.073 202.326 759.498 202.924C760.97 203.476 763.017 204.12 765.639 204.856C768.812 205.73 771.365 206.604 773.297 207.478C775.228 208.306 776.884 209.616 778.264 211.41C779.644 213.158 780.334 215.55 780.334 218.585C780.334 220.931 779.713 223.139 778.471 225.208C777.229 227.278 775.389 228.957 772.952 230.245C770.514 231.532 767.639 232.176 764.328 232.176ZM822.968 193.887L800.201 249.493H793.716L801.167 231.279L785.92 193.887H792.888L804.754 224.518L816.483 193.887H822.968ZM843.494 232.314C840.597 232.314 837.998 231.831 835.699 230.865C833.399 229.854 831.582 228.474 830.248 226.726C828.914 224.932 828.179 222.886 828.041 220.586H834.526C834.71 222.472 835.584 224.012 837.147 225.208C838.757 226.404 840.85 227.002 843.425 227.002C845.817 227.002 847.703 226.473 849.083 225.415C850.463 224.357 851.152 223.024 851.152 221.414C851.152 219.758 850.417 218.539 848.945 217.757C847.473 216.929 845.196 216.125 842.115 215.343C839.309 214.607 837.009 213.871 835.216 213.135C833.468 212.353 831.95 211.226 830.662 209.754C829.42 208.237 828.8 206.259 828.8 203.821C828.8 201.889 829.374 200.119 830.524 198.509C831.674 196.899 833.307 195.634 835.423 194.714C837.538 193.749 839.953 193.266 842.667 193.266C846.852 193.266 850.233 194.324 852.808 196.439C855.384 198.555 856.764 201.453 856.948 205.132H850.669C850.532 203.154 849.727 201.568 848.255 200.372C846.829 199.176 844.897 198.578 842.46 198.578C840.206 198.578 838.412 199.061 837.078 200.027C835.745 200.993 835.078 202.257 835.078 203.821C835.078 205.063 835.469 206.098 836.25 206.926C837.078 207.708 838.09 208.352 839.286 208.858C840.528 209.317 842.23 209.846 844.391 210.444C847.105 211.18 849.313 211.916 851.014 212.652C852.716 213.342 854.165 214.4 855.361 215.826C856.603 217.251 857.247 219.114 857.293 221.414C857.293 223.483 856.718 225.346 855.568 227.002C854.418 228.658 852.785 229.969 850.669 230.934C848.6 231.854 846.208 232.314 843.494 232.314ZM874.645 199.061V221.345C874.645 223.185 875.036 224.495 875.818 225.277C876.6 226.013 877.956 226.381 879.888 226.381H884.51V231.693H878.853C875.358 231.693 872.736 230.888 870.988 229.279C869.241 227.669 868.367 225.024 868.367 221.345V199.061H863.468V193.887H868.367V184.366H874.645V193.887H884.51V199.061H874.645ZM927.444 211.341C927.444 212.537 927.375 213.802 927.237 215.136H897.019C897.249 218.861 898.514 221.782 900.814 223.897C903.159 225.967 905.988 227.002 909.3 227.002C912.013 227.002 914.267 226.381 916.061 225.139C917.9 223.851 919.188 222.15 919.924 220.034H926.685C925.673 223.667 923.65 226.634 920.614 228.934C917.578 231.187 913.807 232.314 909.3 232.314C905.712 232.314 902.493 231.509 899.641 229.9C896.835 228.29 894.628 226.013 893.018 223.07C891.408 220.08 890.603 216.63 890.603 212.721C890.603 208.812 891.385 205.385 892.949 202.441C894.513 199.498 896.697 197.244 899.503 195.68C902.355 194.071 905.62 193.266 909.3 193.266C912.887 193.266 916.061 194.048 918.82 195.611C921.58 197.175 923.696 199.337 925.167 202.096C926.685 204.81 927.444 207.892 927.444 211.341ZM920.959 210.03C920.959 207.639 920.43 205.592 919.372 203.89C918.314 202.142 916.866 200.832 915.026 199.958C913.232 199.038 911.231 198.578 909.024 198.578C905.85 198.578 903.136 199.59 900.883 201.614C898.675 203.637 897.41 206.443 897.088 210.03H920.959ZM982.027 193.197C984.971 193.197 987.593 193.818 989.892 195.059C992.192 196.255 994.009 198.072 995.343 200.51C996.676 202.947 997.343 205.914 997.343 209.409V231.693H991.134V210.306C991.134 206.535 990.191 203.66 988.306 201.683C986.466 199.659 983.959 198.647 980.786 198.647C977.52 198.647 974.921 199.705 972.99 201.82C971.058 203.89 970.092 206.903 970.092 210.858V231.693H963.883V210.306C963.883 206.535 962.94 203.66 961.054 201.683C959.215 199.659 956.708 198.647 953.534 198.647C950.269 198.647 947.67 199.705 945.738 201.82C943.807 203.89 942.841 206.903 942.841 210.858V231.693H936.563V193.887H942.841V199.337C944.083 197.359 945.738 195.841 947.808 194.783C949.924 193.726 952.247 193.197 954.776 193.197C957.95 193.197 960.755 193.91 963.193 195.335C965.631 196.761 967.447 198.854 968.643 201.614C969.701 198.946 971.449 196.876 973.887 195.404C976.324 193.933 979.038 193.197 982.027 193.197Z" fill="#D9DBE9"/>
</svg>
